<svg xmlns="http://www.w3.org/2000/svg" xmlns:xlink="http://www.w3.org/1999/xlink" contentStyleType="text/css" data-diagram-type="CLASS" height="867px" preserveAspectRatio="none" style="width:1695px;height:867px;background:#FFFFFF;" version="1.1" viewBox="0 0 1695 867" width="1695px" zoomAndPan="magnify"><defs/><g><!--cluster Librer?a en L?nea--><g class="cluster" data-entity="Librer.a en L.nea" data-source-line="1" data-uid="ent0002" id="cluster_Librer.a en L.nea"><path d="M8.5,6 L142.6299,6 A3.75,3.75 0 0 1 145.1299,8.5 L152.1299,28.2969 L1685.5,28.2969 A2.5,2.5 0 0 1 1688,30.7969 L1688,858 A2.5,2.5 0 0 1 1685.5,860.5 L8.5,860.5 A2.5,2.5 0 0 1 6,858 L6,8.5 A2.5,2.5 0 0 1 8.5,6" fill="none" style="stroke:#000000;stroke-width:1.5;"/><line style="stroke:#000000;stroke-width:1.5;" x1="6" x2="152.1299" y1="28.2969" y2="28.2969"/><text fill="#000000" font-family="sans-serif" font-size="14" font-weight="bold" lengthAdjust="spacing" textLength="133.1299" x="10" y="20.9951">Librer&#237;a en L&#237;nea</text></g><!--class Usuario--><g class="entity" data-entity="Usuario" data-source-line="3" data-uid="ent0003" id="entity_Usuario"><rect fill="#F1F1F1" height="210.9688" rx="2.5" ry="2.5" style="stroke:#181818;stroke-width:0.5;" width="190.7598" x="495.62" y="41"/><ellipse cx="560.1478" cy="57" fill="#ADD1B2" rx="11" ry="11" style="stroke:#181818;stroke-width:1;"/><path d="M563.1166,62.6406 Q562.5385,62.9375 561.8978,63.0781 Q561.2572,63.2344 560.5541,63.2344 Q558.0541,63.2344 556.726,61.5938 Q555.4135,59.9375 555.4135,56.8125 Q555.4135,53.6875 556.726,52.0313 Q558.0541,50.375 560.5541,50.375 Q561.2572,50.375 561.8978,50.5313 Q562.5541,50.6875 563.1166,50.9844 L563.1166,53.7031 Q562.4916,53.125 561.8978,52.8594 Q561.3041,52.5781 560.6791,52.5781 Q559.3353,52.5781 558.6478,53.6563 Q557.9603,54.7188 557.9603,56.8125 Q557.9603,58.9063 558.6478,59.9844 Q559.3353,61.0469 560.6791,61.0469 Q561.3041,61.0469 561.8978,60.7813 Q562.4916,60.5 563.1166,59.9219 L563.1166,62.6406 Z " fill="#000000"/><text fill="#000000" font-family="sans-serif" font-size="14" lengthAdjust="spacing" textLength="53.2041" x="580.6478" y="61.8467">Usuario</text><line style="stroke:#181818;stroke-width:0.5;" x1="496.62" x2="685.3798" y1="73" y2="73"/><rect fill="none" height="6" style="stroke:#C82930;stroke-width:1;" width="6" x="503.62" y="83.6484"/><text fill="#000000" font-family="sans-serif" font-size="14" lengthAdjust="spacing" textLength="116.9287" x="515.62" y="89.9951">idUsuario: String</text><rect fill="none" height="6" style="stroke:#C82930;stroke-width:1;" width="6" x="503.62" y="99.9453"/><text fill="#000000" font-family="sans-serif" font-size="14" lengthAdjust="spacing" textLength="105.2803" x="515.62" y="106.292">nombre: String</text><rect fill="none" height="6" style="stroke:#C82930;stroke-width:1;" width="6" x="503.62" y="116.2422"/><text fill="#000000" font-family="sans-serif" font-size="14" lengthAdjust="spacing" textLength="114.8164" x="515.62" y="122.5889">direccion: String</text><rect fill="none" height="6" style="stroke:#C82930;stroke-width:1;" width="6" x="503.62" y="132.5391"/><text fill="#000000" font-family="sans-serif" font-size="14" lengthAdjust="spacing" textLength="89.5576" x="515.62" y="138.8857">email: String</text><rect fill="none" height="6" style="stroke:#C82930;stroke-width:1;" width="6" x="503.62" y="148.8359"/><text fill="#000000" font-family="sans-serif" font-size="14" lengthAdjust="spacing" textLength="129.2676" x="515.62" y="155.1826">contrasena: String</text><rect fill="none" height="6" style="stroke:#C82930;stroke-width:1;" width="6" x="503.62" y="165.1328"/><text fill="#000000" font-family="sans-serif" font-size="14" lengthAdjust="spacing" textLength="139.2207" x="515.62" y="171.4795">datosTarjeta: String</text><line style="stroke:#181818;stroke-width:0.5;" x1="496.62" x2="685.3798" y1="178.7813" y2="178.7813"/><ellipse cx="506.62" cy="192.4297" fill="#84BE84" rx="3" ry="3" style="stroke:#038048;stroke-width:1;"/><text fill="#000000" font-family="sans-serif" font-size="14" lengthAdjust="spacing" textLength="109.7373" x="515.62" y="195.7764">registrar(): void</text><ellipse cx="506.62" cy="208.7266" fill="#84BE84" rx="3" ry="3" style="stroke:#038048;stroke-width:1;"/><text fill="#000000" font-family="sans-serif" font-size="14" lengthAdjust="spacing" textLength="164.7598" x="515.62" y="212.0732">iniciarSesion(): boolean</text><ellipse cx="506.62" cy="225.0234" fill="#84BE84" rx="3" ry="3" style="stroke:#038048;stroke-width:1;"/><text fill="#000000" font-family="sans-serif" font-size="14" lengthAdjust="spacing" textLength="159.1064" x="515.62" y="228.3701">actualizarDatos(): void</text><ellipse cx="506.62" cy="241.3203" fill="#84BE84" rx="3" ry="3" style="stroke:#038048;stroke-width:1;"/><text fill="#000000" font-family="sans-serif" font-size="14" lengthAdjust="spacing" textLength="137.9971" x="515.62" y="244.667">cerrarSesion(): void</text></g><!--class Libro--><g class="entity" data-entity="Libro" data-source-line="16" data-uid="ent0004" id="entity_Libro"><rect fill="#F1F1F1" height="243.5625" rx="2.5" ry="2.5" style="stroke:#181818;stroke-width:0.5;" width="290.626" x="1011.69" y="312.97"/><ellipse cx="1135.3043" cy="328.97" fill="#ADD1B2" rx="11" ry="11" style="stroke:#181818;stroke-width:1;"/><path d="M1138.273,334.6106 Q1137.6949,334.9075 1137.0543,335.0481 Q1136.4136,335.2044 1135.7105,335.2044 Q1133.2105,335.2044 1131.8824,333.5638 Q1130.5699,331.9075 1130.5699,328.7825 Q1130.5699,325.6575 1131.8824,324.0013 Q1133.2105,322.345 1135.7105,322.345 Q1136.4136,322.345 1137.0543,322.5013 Q1137.7105,322.6575 1138.273,322.9544 L1138.273,325.6731 Q1137.648,325.095 1137.0543,324.8294 Q1136.4605,324.5481 1135.8355,324.5481 Q1134.4918,324.5481 1133.8043,325.6263 Q1133.1168,326.6888 1133.1168,328.7825 Q1133.1168,330.8763 1133.8043,331.9544 Q1134.4918,333.0169 1135.8355,333.0169 Q1136.4605,333.0169 1137.0543,332.7513 Q1137.648,332.47 1138.273,331.8919 L1138.273,334.6106 Z " fill="#000000"/><text fill="#000000" font-family="sans-serif" font-size="14" lengthAdjust="spacing" textLength="34.8975" x="1155.8043" y="333.8167">Libro</text><line style="stroke:#181818;stroke-width:0.5;" x1="1012.69" x2="1301.316" y1="344.97" y2="344.97"/><rect fill="none" height="6" style="stroke:#C82930;stroke-width:1;" width="6" x="1019.69" y="355.6184"/><text fill="#000000" font-family="sans-serif" font-size="14" lengthAdjust="spacing" textLength="98.6221" x="1031.69" y="361.9651">idLibro: String</text><rect fill="none" height="6" style="stroke:#C82930;stroke-width:1;" width="6" x="1019.69" y="371.9153"/><text fill="#000000" font-family="sans-serif" font-size="14" lengthAdjust="spacing" textLength="87.1445" x="1031.69" y="378.262">titulo: String</text><rect fill="none" height="6" style="stroke:#C82930;stroke-width:1;" width="6" x="1019.69" y="388.2122"/><text fill="#000000" font-family="sans-serif" font-size="14" lengthAdjust="spacing" textLength="88.2109" x="1031.69" y="394.5589">autor: String</text><rect fill="none" height="6" style="stroke:#C82930;stroke-width:1;" width="6" x="1019.69" y="404.5091"/><text fill="#000000" font-family="sans-serif" font-size="14" lengthAdjust="spacing" textLength="117.0039" x="1031.69" y="410.8557">categoria: String</text><rect fill="none" height="6" style="stroke:#C82930;stroke-width:1;" width="6" x="1019.69" y="420.8059"/><text fill="#000000" font-family="sans-serif" font-size="14" lengthAdjust="spacing" textLength="191.1807" x="1031.69" y="427.1526">palabraClave: List&lt;String&gt;</text><rect fill="none" height="6" style="stroke:#C82930;stroke-width:1;" width="6" x="1019.69" y="437.1028"/><text fill="#000000" font-family="sans-serif" font-size="14" lengthAdjust="spacing" textLength="87.1514" x="1031.69" y="443.4495">precio: Float</text><rect fill="none" height="6" style="stroke:#C82930;stroke-width:1;" width="6" x="1019.69" y="453.3997"/><text fill="#000000" font-family="sans-serif" font-size="14" lengthAdjust="spacing" textLength="130.9971" x="1031.69" y="459.7464">descripcion: String</text><line style="stroke:#181818;stroke-width:0.5;" x1="1012.69" x2="1301.316" y1="467.0481" y2="467.0481"/><ellipse cx="1022.69" cy="480.6966" fill="#84BE84" rx="3" ry="3" style="stroke:#038048;stroke-width:1;"/><text fill="#000000" font-family="sans-serif" font-size="14" lengthAdjust="spacing" textLength="212.0303" x="1031.69" y="484.0432">buscarPorTitulo(): List&lt;Libro&gt;</text><ellipse cx="1022.69" cy="496.9934" fill="#84BE84" rx="3" ry="3" style="stroke:#038048;stroke-width:1;"/><text fill="#000000" font-family="sans-serif" font-size="14" lengthAdjust="spacing" textLength="211.0322" x="1031.69" y="500.3401">buscarPorAutor(): List&lt;Libro&gt;</text><ellipse cx="1022.69" cy="513.2903" fill="#84BE84" rx="3" ry="3" style="stroke:#038048;stroke-width:1;"/><text fill="#000000" font-family="sans-serif" font-size="14" lengthAdjust="spacing" textLength="240.9053" x="1031.69" y="516.637">buscarPorCategoria(): List&lt;Libro&gt;</text><ellipse cx="1022.69" cy="529.5872" fill="#84BE84" rx="3" ry="3" style="stroke:#038048;stroke-width:1;"/><text fill="#000000" font-family="sans-serif" font-size="14" lengthAdjust="spacing" textLength="264.626" x="1031.69" y="532.9339">buscarPorPalabraClave(): List&lt;Libro&gt;</text><ellipse cx="1022.69" cy="545.8841" fill="#84BE84" rx="3" ry="3" style="stroke:#038048;stroke-width:1;"/><text fill="#000000" font-family="sans-serif" font-size="14" lengthAdjust="spacing" textLength="173.8174" x="1031.69" y="549.2307">obtenerDetalles(): String</text></g><!--class Pedido--><g class="entity" data-entity="Pedido" data-source-line="31" data-uid="ent0005" id="entity_Pedido"><rect fill="#F1F1F1" height="178.375" rx="2.5" ry="2.5" style="stroke:#181818;stroke-width:0.5;" width="210.2422" x="21.88" y="345.56"/><ellipse cx="99.109" cy="361.56" fill="#ADD1B2" rx="11" ry="11" style="stroke:#181818;stroke-width:1;"/><path d="M102.0778,367.2006 Q101.4996,367.4975 100.859,367.6381 Q100.2184,367.7944 99.5153,367.7944 Q97.0153,367.7944 95.6871,366.1537 Q94.3746,364.4975 94.3746,361.3725 Q94.3746,358.2475 95.6871,356.5912 Q97.0153,354.935 99.5153,354.935 Q100.2184,354.935 100.859,355.0912 Q101.5153,355.2475 102.0778,355.5444 L102.0778,358.2631 Q101.4528,357.685 100.859,357.4194 Q100.2653,357.1381 99.6403,357.1381 Q98.2965,357.1381 97.609,358.2162 Q96.9215,359.2787 96.9215,361.3725 Q96.9215,363.4662 97.609,364.5444 Q98.2965,365.6069 99.6403,365.6069 Q100.2653,365.6069 100.859,365.3412 Q101.4528,365.06 102.0778,364.4819 L102.0778,367.2006 Z " fill="#000000"/><text fill="#000000" font-family="sans-serif" font-size="14" lengthAdjust="spacing" textLength="47.2842" x="119.609" y="366.4067">Pedido</text><line style="stroke:#181818;stroke-width:0.5;" x1="22.88" x2="231.1222" y1="377.56" y2="377.56"/><rect fill="none" height="6" style="stroke:#C82930;stroke-width:1;" width="6" x="29.88" y="388.2084"/><text fill="#000000" font-family="sans-serif" font-size="14" lengthAdjust="spacing" textLength="111.0088" x="41.88" y="394.5551">idPedido: String</text><rect fill="none" height="6" style="stroke:#C82930;stroke-width:1;" width="6" x="29.88" y="404.5053"/><text fill="#000000" font-family="sans-serif" font-size="14" lengthAdjust="spacing" textLength="81.3203" x="41.88" y="410.852">fecha: Date</text><rect fill="none" height="6" style="stroke:#C82930;stroke-width:1;" width="6" x="29.88" y="420.8022"/><text fill="#000000" font-family="sans-serif" font-size="14" lengthAdjust="spacing" textLength="98.376" x="41.88" y="427.1489">estado: String</text><rect fill="none" height="6" style="stroke:#C82930;stroke-width:1;" width="6" x="29.88" y="437.0991"/><text fill="#000000" font-family="sans-serif" font-size="14" lengthAdjust="spacing" textLength="75.7559" x="41.88" y="443.4457">total: Float</text><line style="stroke:#181818;stroke-width:0.5;" x1="22.88" x2="231.1222" y1="450.7475" y2="450.7475"/><ellipse cx="32.88" cy="464.3959" fill="#84BE84" rx="3" ry="3" style="stroke:#038048;stroke-width:1;"/><text fill="#000000" font-family="sans-serif" font-size="14" lengthAdjust="spacing" textLength="133.4033" x="41.88" y="467.7426">crearPedido(): void</text><ellipse cx="32.88" cy="480.6928" fill="#84BE84" rx="3" ry="3" style="stroke:#038048;stroke-width:1;"/><text fill="#000000" font-family="sans-serif" font-size="14" lengthAdjust="spacing" textLength="183.0322" x="41.88" y="484.0395">cancelarPedido(): boolean</text><ellipse cx="32.88" cy="496.9897" fill="#84BE84" rx="3" ry="3" style="stroke:#038048;stroke-width:1;"/><text fill="#000000" font-family="sans-serif" font-size="14" lengthAdjust="spacing" textLength="184.2422" x="41.88" y="500.3364">devolverPedido(): boolean</text><ellipse cx="32.88" cy="513.2866" fill="#84BE84" rx="3" ry="3" style="stroke:#038048;stroke-width:1;"/><text fill="#000000" font-family="sans-serif" font-size="14" lengthAdjust="spacing" textLength="144.7031" x="41.88" y="516.6332">calcularTotal(): Float</text></g><!--class Carrito--><g class="entity" data-entity="Carrito" data-source-line="42" data-uid="ent0006" id="entity_Carrito"><rect fill="#F1F1F1" height="145.7813" rx="2.5" ry="2.5" style="stroke:#181818;stroke-width:0.5;" width="367.0039" x="267.5" y="361.86"/><ellipse cx="422.8467" cy="377.86" fill="#ADD1B2" rx="11" ry="11" style="stroke:#181818;stroke-width:1;"/><path d="M425.8154,383.5006 Q425.2373,383.7975 424.5967,383.9381 Q423.9561,384.0944 423.2529,384.0944 Q420.7529,384.0944 419.4248,382.4538 Q418.1123,380.7975 418.1123,377.6725 Q418.1123,374.5475 419.4248,372.8913 Q420.7529,371.235 423.2529,371.235 Q423.9561,371.235 424.5967,371.3913 Q425.2529,371.5475 425.8154,371.8444 L425.8154,374.5631 Q425.1904,373.985 424.5967,373.7194 Q424.0029,373.4381 423.3779,373.4381 Q422.0342,373.4381 421.3467,374.5163 Q420.6592,375.5788 420.6592,377.6725 Q420.6592,379.7663 421.3467,380.8444 Q422.0342,381.9069 423.3779,381.9069 Q424.0029,381.9069 424.5967,381.6413 Q425.1904,381.36 425.8154,380.7819 L425.8154,383.5006 Z " fill="#000000"/><text fill="#000000" font-family="sans-serif" font-size="14" lengthAdjust="spacing" textLength="47.8105" x="443.3467" y="382.7067">Carrito</text><line style="stroke:#181818;stroke-width:0.5;" x1="268.5" x2="633.5039" y1="393.86" y2="393.86"/><rect fill="none" height="6" style="stroke:#C82930;stroke-width:1;" width="6" x="275.5" y="404.5084"/><text fill="#000000" font-family="sans-serif" font-size="14" lengthAdjust="spacing" textLength="111.5352" x="287.5" y="410.8551">idCarrito: String</text><rect fill="none" height="6" style="stroke:#C82930;stroke-width:1;" width="6" x="275.5" y="420.8053"/><text fill="#000000" font-family="sans-serif" font-size="14" lengthAdjust="spacing" textLength="114.2012" x="287.5" y="427.152">usuario: Usuario</text><line style="stroke:#181818;stroke-width:0.5;" x1="268.5" x2="633.5039" y1="434.4538" y2="434.4538"/><ellipse cx="278.5" cy="448.1022" fill="#84BE84" rx="3" ry="3" style="stroke:#038048;stroke-width:1;"/><text fill="#000000" font-family="sans-serif" font-size="14" lengthAdjust="spacing" textLength="341.0039" x="287.5" y="451.4489">agregarItem(libro: Libro, cantidad: Integer): void</text><ellipse cx="278.5" cy="464.3991" fill="#84BE84" rx="3" ry="3" style="stroke:#038048;stroke-width:1;"/><text fill="#000000" font-family="sans-serif" font-size="14" lengthAdjust="spacing" textLength="213.7666" x="287.5" y="467.7457">eliminarItem(libro: Libro): void</text><ellipse cx="278.5" cy="480.6959" fill="#84BE84" rx="3" ry="3" style="stroke:#038048;stroke-width:1;"/><text fill="#000000" font-family="sans-serif" font-size="14" lengthAdjust="spacing" textLength="140.3145" x="287.5" y="484.0426">vaciarCarrito(): void</text><ellipse cx="278.5" cy="496.9928" fill="#84BE84" rx="3" ry="3" style="stroke:#038048;stroke-width:1;"/><text fill="#000000" font-family="sans-serif" font-size="14" lengthAdjust="spacing" textLength="241.6641" x="287.5" y="500.3395">obtenerItems(): List&lt;ItemCarrito&gt;</text></g><!--class ItemCarrito--><g class="entity" data-entity="ItemCarrito" data-source-line="51" data-uid="ent0007" id="entity_ItemCarrito"><rect fill="#F1F1F1" height="129.4844" rx="2.5" ry="2.5" style="stroke:#181818;stroke-width:0.5;" width="194.2871" x="353.86" y="674.27"/><ellipse cx="406.9137" cy="690.27" fill="#ADD1B2" rx="11" ry="11" style="stroke:#181818;stroke-width:1;"/><path d="M409.8825,695.9106 Q409.3043,696.2075 408.6637,696.3481 Q408.0231,696.5044 407.32,696.5044 Q404.82,696.5044 403.4918,694.8638 Q402.1793,693.2075 402.1793,690.0825 Q402.1793,686.9575 403.4918,685.3013 Q404.82,683.645 407.32,683.645 Q408.0231,683.645 408.6637,683.8013 Q409.32,683.9575 409.8825,684.2544 L409.8825,686.9731 Q409.2575,686.395 408.6637,686.1294 Q408.07,685.8481 407.445,685.8481 Q406.1012,685.8481 405.4137,686.9263 Q404.7262,687.9888 404.7262,690.0825 Q404.7262,692.1763 405.4137,693.2544 Q406.1012,694.3169 407.445,694.3169 Q408.07,694.3169 408.6637,694.0513 Q409.2575,693.77 409.8825,693.1919 L409.8825,695.9106 Z " fill="#000000"/><text fill="#000000" font-family="sans-serif" font-size="14" lengthAdjust="spacing" textLength="79.6797" x="427.4137" y="695.1167">ItemCarrito</text><line style="stroke:#181818;stroke-width:0.5;" x1="354.86" x2="547.1471" y1="706.27" y2="706.27"/><rect fill="none" height="6" style="stroke:#C82930;stroke-width:1;" width="6" x="361.86" y="716.9184"/><text fill="#000000" font-family="sans-serif" font-size="14" lengthAdjust="spacing" textLength="95.5938" x="373.86" y="723.2651">idItem: String</text><rect fill="none" height="6" style="stroke:#C82930;stroke-width:1;" width="6" x="361.86" y="733.2153"/><text fill="#000000" font-family="sans-serif" font-size="14" lengthAdjust="spacing" textLength="75.0518" x="373.86" y="739.562">libro: Libro</text><rect fill="none" height="6" style="stroke:#C82930;stroke-width:1;" width="6" x="361.86" y="749.5122"/><text fill="#000000" font-family="sans-serif" font-size="14" lengthAdjust="spacing" textLength="120.4082" x="373.86" y="755.8589">cantidad: Integer</text><rect fill="none" height="6" style="stroke:#C82930;stroke-width:1;" width="6" x="361.86" y="765.8091"/><text fill="#000000" font-family="sans-serif" font-size="14" lengthAdjust="spacing" textLength="100.8096" x="373.86" y="772.1557">subtotal: Float</text><line style="stroke:#181818;stroke-width:0.5;" x1="354.86" x2="547.1471" y1="779.4575" y2="779.4575"/><ellipse cx="364.86" cy="793.1059" fill="#84BE84" rx="3" ry="3" style="stroke:#038048;stroke-width:1;"/><text fill="#000000" font-family="sans-serif" font-size="14" lengthAdjust="spacing" textLength="168.2871" x="373.86" y="796.4526">calcularSubtotal(): Float</text></g><!--class ListaDeseos--><g class="entity" data-entity="ListaDeseos" data-source-line="59" data-uid="ent0008" id="entity_ListaDeseos"><rect fill="#F1F1F1" height="129.4844" rx="2.5" ry="2.5" style="stroke:#181818;stroke-width:0.5;" width="307.0938" x="669.45" y="370.01"/><ellipse cx="776.6409" cy="386.01" fill="#ADD1B2" rx="11" ry="11" style="stroke:#181818;stroke-width:1;"/><path d="M779.6097,391.6506 Q779.0315,391.9475 778.3909,392.0881 Q777.7503,392.2444 777.0472,392.2444 Q774.5472,392.2444 773.219,390.6038 Q771.9065,388.9475 771.9065,385.8225 Q771.9065,382.6975 773.219,381.0413 Q774.5472,379.385 777.0472,379.385 Q777.7503,379.385 778.3909,379.5413 Q779.0472,379.6975 779.6097,379.9944 L779.6097,382.7131 Q778.9847,382.135 778.3909,381.8694 Q777.7972,381.5881 777.1722,381.5881 Q775.8284,381.5881 775.1409,382.6663 Q774.4534,383.7288 774.4534,385.8225 Q774.4534,387.9163 775.1409,388.9944 Q775.8284,390.0569 777.1722,390.0569 Q777.7972,390.0569 778.3909,389.7913 Q778.9847,389.51 779.6097,388.9319 L779.6097,391.6506 Z " fill="#000000"/><text fill="#000000" font-family="sans-serif" font-size="14" lengthAdjust="spacing" textLength="84.2119" x="797.1409" y="390.8567">ListaDeseos</text><line style="stroke:#181818;stroke-width:0.5;" x1="670.45" x2="975.5438" y1="402.01" y2="402.01"/><rect fill="none" height="6" style="stroke:#C82930;stroke-width:1;" width="6" x="677.45" y="412.6584"/><text fill="#000000" font-family="sans-serif" font-size="14" lengthAdjust="spacing" textLength="96.7764" x="689.45" y="419.0051">idLista: String</text><rect fill="none" height="6" style="stroke:#C82930;stroke-width:1;" width="6" x="677.45" y="428.9553"/><text fill="#000000" font-family="sans-serif" font-size="14" lengthAdjust="spacing" textLength="105.2803" x="689.45" y="435.302">nombre: String</text><line style="stroke:#181818;stroke-width:0.5;" x1="670.45" x2="975.5438" y1="442.6038" y2="442.6038"/><ellipse cx="680.45" cy="456.2522" fill="#84BE84" rx="3" ry="3" style="stroke:#038048;stroke-width:1;"/><text fill="#000000" font-family="sans-serif" font-size="14" lengthAdjust="spacing" textLength="214.7236" x="689.45" y="459.5989">agregarLibro(libro: Libro): void</text><ellipse cx="680.45" cy="472.5491" fill="#84BE84" rx="3" ry="3" style="stroke:#038048;stroke-width:1;"/><text fill="#000000" font-family="sans-serif" font-size="14" lengthAdjust="spacing" textLength="216.7949" x="689.45" y="475.8957">eliminarLibro(libro: Libro): void</text><ellipse cx="680.45" cy="488.8459" fill="#84BE84" rx="3" ry="3" style="stroke:#038048;stroke-width:1;"/><text fill="#000000" font-family="sans-serif" font-size="14" lengthAdjust="spacing" textLength="281.0938" x="689.45" y="492.1926">obtenerLibros(): List&lt;ItemListaDeseos&gt;</text></g><!--class ItemListaDeseos--><g class="entity" data-entity="ItemListaDeseos" data-source-line="67" data-uid="ent0009" id="entity_ItemListaDeseos"><rect fill="#F1F1F1" height="80.5938" rx="2.5" ry="2.5" style="stroke:#181818;stroke-width:0.5;" width="148.0811" x="913.96" y="698.72"/><ellipse cx="928.96" cy="714.72" fill="#ADD1B2" rx="11" ry="11" style="stroke:#181818;stroke-width:1;"/><path d="M931.9288,720.3606 Q931.3506,720.6575 930.71,720.7981 Q930.0694,720.9544 929.3663,720.9544 Q926.8663,720.9544 925.5381,719.3138 Q924.2256,717.6575 924.2256,714.5325 Q924.2256,711.4075 925.5381,709.7513 Q926.8663,708.095 929.3663,708.095 Q930.0694,708.095 930.71,708.2513 Q931.3663,708.4075 931.9288,708.7044 L931.9288,711.4231 Q931.3038,710.845 930.71,710.5794 Q930.1163,710.2981 929.4913,710.2981 Q928.1475,710.2981 927.46,711.3763 Q926.7725,712.4388 926.7725,714.5325 Q926.7725,716.6263 927.46,717.7044 Q928.1475,718.7669 929.4913,718.7669 Q930.1163,718.7669 930.71,718.5013 Q931.3038,718.22 931.9288,717.6419 L931.9288,720.3606 Z " fill="#000000"/><text fill="#000000" font-family="sans-serif" font-size="14" lengthAdjust="spacing" textLength="116.0811" x="942.96" y="719.5667">ItemListaDeseos</text><line style="stroke:#181818;stroke-width:0.5;" x1="914.96" x2="1061.0411" y1="730.72" y2="730.72"/><rect fill="none" height="6" style="stroke:#C82930;stroke-width:1;" width="6" x="921.96" y="741.3684"/><text fill="#000000" font-family="sans-serif" font-size="14" lengthAdjust="spacing" textLength="95.5938" x="933.96" y="747.7151">idItem: String</text><rect fill="none" height="6" style="stroke:#C82930;stroke-width:1;" width="6" x="921.96" y="757.6653"/><text fill="#000000" font-family="sans-serif" font-size="14" lengthAdjust="spacing" textLength="75.0518" x="933.96" y="764.012">libro: Libro</text><line style="stroke:#181818;stroke-width:0.5;" x1="914.96" x2="1061.0411" y1="771.3138" y2="771.3138"/></g><!--class Rese?a--><g class="entity" data-entity="Rese.a" data-source-line="72" data-uid="ent0010" id="entity_Rese.a"><rect fill="#F1F1F1" height="210.9688" rx="2.5" ry="2.5" style="stroke:#181818;stroke-width:0.5;" width="316.9648" x="1179.52" y="633.53"/><ellipse cx="1307.9023" cy="649.53" fill="#ADD1B2" rx="11" ry="11" style="stroke:#181818;stroke-width:1;"/><path d="M1310.8711,655.1706 Q1310.2929,655.4675 1309.6523,655.6081 Q1309.0117,655.7644 1308.3086,655.7644 Q1305.8086,655.7644 1304.4804,654.1238 Q1303.1679,652.4675 1303.1679,649.3425 Q1303.1679,646.2175 1304.4804,644.5613 Q1305.8086,642.905 1308.3086,642.905 Q1309.0117,642.905 1309.6523,643.0613 Q1310.3086,643.2175 1310.8711,643.5144 L1310.8711,646.2331 Q1310.2461,645.655 1309.6523,645.3894 Q1309.0586,645.1081 1308.4336,645.1081 Q1307.0898,645.1081 1306.4023,646.1863 Q1305.7148,647.2488 1305.7148,649.3425 Q1305.7148,651.4363 1306.4023,652.5144 Q1307.0898,653.5769 1308.4336,653.5769 Q1309.0586,653.5769 1309.6523,653.3113 Q1310.2461,653.03 1310.8711,652.4519 L1310.8711,655.1706 Z " fill="#000000"/><text fill="#000000" font-family="sans-serif" font-size="14" lengthAdjust="spacing" textLength="51.7002" x="1328.4023" y="654.3767">Rese&#241;a</text><line style="stroke:#181818;stroke-width:0.5;" x1="1180.52" x2="1495.4848" y1="665.53" y2="665.53"/><rect fill="none" height="6" style="stroke:#C82930;stroke-width:1;" width="6" x="1187.52" y="676.1784"/><text fill="#000000" font-family="sans-serif" font-size="14" lengthAdjust="spacing" textLength="115.4248" x="1199.52" y="682.5251">idResena: String</text><rect fill="none" height="6" style="stroke:#C82930;stroke-width:1;" width="6" x="1187.52" y="692.4753"/><text fill="#000000" font-family="sans-serif" font-size="14" lengthAdjust="spacing" textLength="75.0518" x="1199.52" y="698.822">libro: Libro</text><rect fill="none" height="6" style="stroke:#C82930;stroke-width:1;" width="6" x="1187.52" y="708.7722"/><text fill="#000000" font-family="sans-serif" font-size="14" lengthAdjust="spacing" textLength="114.2012" x="1199.52" y="715.1189">usuario: Usuario</text><rect fill="none" height="6" style="stroke:#C82930;stroke-width:1;" width="6" x="1187.52" y="725.0691"/><text fill="#000000" font-family="sans-serif" font-size="14" lengthAdjust="spacing" textLength="87.3906" x="1199.52" y="731.4157">texto: String</text><rect fill="none" height="6" style="stroke:#C82930;stroke-width:1;" width="6" x="1187.52" y="741.3659"/><text fill="#000000" font-family="sans-serif" font-size="14" lengthAdjust="spacing" textLength="137.7031" x="1199.52" y="747.7126">calificacion: Integer</text><rect fill="none" height="6" style="stroke:#C82930;stroke-width:1;" width="6" x="1187.52" y="757.6628"/><text fill="#000000" font-family="sans-serif" font-size="14" lengthAdjust="spacing" textLength="98.376" x="1199.52" y="764.0095">estado: String</text><rect fill="none" height="6" style="stroke:#C82930;stroke-width:1;" width="6" x="1187.52" y="773.9597"/><text fill="#000000" font-family="sans-serif" font-size="14" lengthAdjust="spacing" textLength="81.3203" x="1199.52" y="780.3064">fecha: Date</text><line style="stroke:#181818;stroke-width:0.5;" x1="1180.52" x2="1495.4848" y1="787.6081" y2="787.6081"/><ellipse cx="1190.52" cy="801.2566" fill="#84BE84" rx="3" ry="3" style="stroke:#038048;stroke-width:1;"/><text fill="#000000" font-family="sans-serif" font-size="14" lengthAdjust="spacing" textLength="157.876" x="1199.52" y="804.6032">publicarResena(): void</text><ellipse cx="1190.52" cy="817.5534" fill="#84BE84" rx="3" ry="3" style="stroke:#038048;stroke-width:1;"/><text fill="#000000" font-family="sans-serif" font-size="14" lengthAdjust="spacing" textLength="290.9648" x="1199.52" y="820.9001">truncarTexto(maxLength: Integer): String</text><ellipse cx="1190.52" cy="833.8503" fill="#84BE84" rx="3" ry="3" style="stroke:#038048;stroke-width:1;"/><text fill="#000000" font-family="sans-serif" font-size="14" lengthAdjust="spacing" textLength="223.5967" x="1199.52" y="837.197">obtenerTextoCompleto(): String</text></g><!--class Pago--><g class="entity" data-entity="Pago" data-source-line="85" data-uid="ent0011" id="entity_Pago"><rect fill="#F1F1F1" height="162.0781" rx="2.5" ry="2.5" style="stroke:#181818;stroke-width:0.5;" width="197.6846" x="28.16" y="657.98"/><ellipse cx="105.5155" cy="673.98" fill="#ADD1B2" rx="11" ry="11" style="stroke:#181818;stroke-width:1;"/><path d="M108.4842,679.6206 Q107.9061,679.9175 107.2655,680.0581 Q106.6248,680.2144 105.9217,680.2144 Q103.4217,680.2144 102.0936,678.5738 Q100.7811,676.9175 100.7811,673.7925 Q100.7811,670.6675 102.0936,669.0113 Q103.4217,667.355 105.9217,667.355 Q106.6248,667.355 107.2655,667.5113 Q107.9217,667.6675 108.4842,667.9644 L108.4842,670.6831 Q107.8592,670.105 107.2655,669.8394 Q106.6717,669.5581 106.0467,669.5581 Q104.703,669.5581 104.0155,670.6363 Q103.328,671.6988 103.328,673.7925 Q103.328,675.8863 104.0155,676.9644 Q104.703,678.0269 106.0467,678.0269 Q106.6717,678.0269 107.2655,677.7613 Q107.8592,677.48 108.4842,676.9019 L108.4842,679.6206 Z " fill="#000000"/><text fill="#000000" font-family="sans-serif" font-size="14" lengthAdjust="spacing" textLength="34.4736" x="126.0155" y="678.8267">Pago</text><line style="stroke:#181818;stroke-width:0.5;" x1="29.16" x2="224.8446" y1="689.98" y2="689.98"/><rect fill="none" height="6" style="stroke:#C82930;stroke-width:1;" width="6" x="36.16" y="700.6284"/><text fill="#000000" font-family="sans-serif" font-size="14" lengthAdjust="spacing" textLength="98.1982" x="48.16" y="706.9751">idPago: String</text><rect fill="none" height="6" style="stroke:#C82930;stroke-width:1;" width="6" x="36.16" y="716.9253"/><text fill="#000000" font-family="sans-serif" font-size="14" lengthAdjust="spacing" textLength="88.874" x="48.16" y="723.272">monto: Float</text><rect fill="none" height="6" style="stroke:#C82930;stroke-width:1;" width="6" x="36.16" y="733.2222"/><text fill="#000000" font-family="sans-serif" font-size="14" lengthAdjust="spacing" textLength="104.7061" x="48.16" y="739.5689">metodo: String</text><rect fill="none" height="6" style="stroke:#C82930;stroke-width:1;" width="6" x="36.16" y="749.5191"/><text fill="#000000" font-family="sans-serif" font-size="14" lengthAdjust="spacing" textLength="98.376" x="48.16" y="755.8657">estado: String</text><rect fill="none" height="6" style="stroke:#C82930;stroke-width:1;" width="6" x="36.16" y="765.8159"/><text fill="#000000" font-family="sans-serif" font-size="14" lengthAdjust="spacing" textLength="81.3203" x="48.16" y="772.1626">fecha: Date</text><line style="stroke:#181818;stroke-width:0.5;" x1="29.16" x2="224.8446" y1="779.4644" y2="779.4644"/><ellipse cx="39.16" cy="793.1128" fill="#84BE84" rx="3" ry="3" style="stroke:#038048;stroke-width:1;"/><text fill="#000000" font-family="sans-serif" font-size="14" lengthAdjust="spacing" textLength="171.6846" x="48.16" y="796.4595">procesarPago(): boolean</text><ellipse cx="39.16" cy="809.4097" fill="#84BE84" rx="3" ry="3" style="stroke:#038048;stroke-width:1;"/><text fill="#000000" font-family="sans-serif" font-size="14" lengthAdjust="spacing" textLength="158.4023" x="48.16" y="812.7564">validarPago(): boolean</text></g><!--class Inventario--><g class="entity" data-entity="Inventario" data-source-line="95" data-uid="ent0012" id="entity_Inventario"><rect fill="#F1F1F1" height="129.4844" rx="2.5" ry="2.5" style="stroke:#181818;stroke-width:0.5;" width="462.9053" x="925.55" y="81.74"/><ellipse cx="1117.2263" cy="97.74" fill="#ADD1B2" rx="11" ry="11" style="stroke:#181818;stroke-width:1;"/><path d="M1120.195,103.3806 Q1119.6169,103.6775 1118.9763,103.8181 Q1118.3356,103.9744 1117.6325,103.9744 Q1115.1325,103.9744 1113.8044,102.3338 Q1112.4919,100.6775 1112.4919,97.5525 Q1112.4919,94.4275 1113.8044,92.7713 Q1115.1325,91.115 1117.6325,91.115 Q1118.3356,91.115 1118.9763,91.2713 Q1119.6325,91.4275 1120.195,91.7244 L1120.195,94.4431 Q1119.57,93.865 1118.9763,93.5994 Q1118.3825,93.3181 1117.7575,93.3181 Q1116.4138,93.3181 1115.7263,94.3963 Q1115.0388,95.4588 1115.0388,97.5525 Q1115.0388,99.6463 1115.7263,100.7244 Q1116.4138,101.7869 1117.7575,101.7869 Q1118.3825,101.7869 1118.9763,101.5213 Q1119.57,101.24 1120.195,100.6619 L1120.195,103.3806 Z " fill="#000000"/><text fill="#000000" font-family="sans-serif" font-size="14" lengthAdjust="spacing" textLength="71.0527" x="1137.7263" y="102.5867">Inventario</text><line style="stroke:#181818;stroke-width:0.5;" x1="926.55" x2="1387.4553" y1="113.74" y2="113.74"/><rect fill="none" height="6" style="stroke:#C82930;stroke-width:1;" width="6" x="933.55" y="124.3884"/><text fill="#000000" font-family="sans-serif" font-size="14" lengthAdjust="spacing" textLength="134.7773" x="945.55" y="130.7351">idInventario: String</text><rect fill="none" height="6" style="stroke:#C82930;stroke-width:1;" width="6" x="933.55" y="140.6853"/><text fill="#000000" font-family="sans-serif" font-size="14" lengthAdjust="spacing" textLength="75.0518" x="945.55" y="147.032">libro: Libro</text><rect fill="none" height="6" style="stroke:#C82930;stroke-width:1;" width="6" x="933.55" y="156.9822"/><text fill="#000000" font-family="sans-serif" font-size="14" lengthAdjust="spacing" textLength="193.9766" x="945.55" y="163.3289">cantidadDisponible: Integer</text><line style="stroke:#181818;stroke-width:0.5;" x1="926.55" x2="1387.4553" y1="170.6306" y2="170.6306"/><ellipse cx="936.55" cy="184.2791" fill="#84BE84" rx="3" ry="3" style="stroke:#038048;stroke-width:1;"/><text fill="#000000" font-family="sans-serif" font-size="14" lengthAdjust="spacing" textLength="277.5527" x="945.55" y="187.6257">actualizarStock(cantidad: Integer): void</text><ellipse cx="936.55" cy="200.5759" fill="#84BE84" rx="3" ry="3" style="stroke:#038048;stroke-width:1;"/><text fill="#000000" font-family="sans-serif" font-size="14" lengthAdjust="spacing" textLength="436.9053" x="945.55" y="203.9226">verificarDisponibilidad(libro: Libro, cantidad: Integer): boolean</text></g><!--class Moderador--><g class="entity" data-entity="Moderador" data-source-line="103" data-uid="ent0013" id="entity_Moderador"><rect fill="#F1F1F1" height="129.4844" rx="2.5" ry="2.5" style="stroke:#181818;stroke-width:0.5;" width="297.2158" x="1374.39" y="370.01"/><ellipse cx="1480.9042" cy="386.01" fill="#ADD1B2" rx="11" ry="11" style="stroke:#181818;stroke-width:1;"/><path d="M1483.8729,391.6506 Q1483.2948,391.9475 1482.6542,392.0881 Q1482.0135,392.2444 1481.3104,392.2444 Q1478.8104,392.2444 1477.4823,390.6038 Q1476.1698,388.9475 1476.1698,385.8225 Q1476.1698,382.6975 1477.4823,381.0413 Q1478.8104,379.385 1481.3104,379.385 Q1482.0135,379.385 1482.6542,379.5413 Q1483.3104,379.6975 1483.8729,379.9944 L1483.8729,382.7131 Q1483.2479,382.135 1482.6542,381.8694 Q1482.0604,381.5881 1481.4354,381.5881 Q1480.0917,381.5881 1479.4042,382.6663 Q1478.7167,383.7288 1478.7167,385.8225 Q1478.7167,387.9163 1479.4042,388.9944 Q1480.0917,390.0569 1481.4354,390.0569 Q1482.0604,390.0569 1482.6542,389.7913 Q1483.2479,389.51 1483.8729,388.9319 L1483.8729,391.6506 Z " fill="#000000"/><text fill="#000000" font-family="sans-serif" font-size="14" lengthAdjust="spacing" textLength="75.6875" x="1501.4042" y="390.8567">Moderador</text><line style="stroke:#181818;stroke-width:0.5;" x1="1375.39" x2="1670.6058" y1="402.01" y2="402.01"/><rect fill="none" height="6" style="stroke:#C82930;stroke-width:1;" width="6" x="1382.39" y="412.6584"/><text fill="#000000" font-family="sans-serif" font-size="14" lengthAdjust="spacing" textLength="139.4121" x="1394.39" y="419.0051">idModerador: String</text><rect fill="none" height="6" style="stroke:#C82930;stroke-width:1;" width="6" x="1382.39" y="428.9553"/><text fill="#000000" font-family="sans-serif" font-size="14" lengthAdjust="spacing" textLength="105.2803" x="1394.39" y="435.302">nombre: String</text><rect fill="none" height="6" style="stroke:#C82930;stroke-width:1;" width="6" x="1382.39" y="445.2522"/><text fill="#000000" font-family="sans-serif" font-size="14" lengthAdjust="spacing" textLength="89.5576" x="1394.39" y="451.5989">email: String</text><line style="stroke:#181818;stroke-width:0.5;" x1="1375.39" x2="1670.6058" y1="458.9006" y2="458.9006"/><ellipse cx="1385.39" cy="472.5491" fill="#84BE84" rx="3" ry="3" style="stroke:#038048;stroke-width:1;"/><text fill="#000000" font-family="sans-serif" font-size="14" lengthAdjust="spacing" textLength="265.0225" x="1394.39" y="475.8957">aprobarResena(resena: Rese&#241;a): void</text><ellipse cx="1385.39" cy="488.8459" fill="#84BE84" rx="3" ry="3" style="stroke:#038048;stroke-width:1;"/><text fill="#000000" font-family="sans-serif" font-size="14" lengthAdjust="spacing" textLength="271.2158" x="1394.39" y="492.1926">rechazarResena(resena: Rese&#241;a): void</text></g><!--link Usuario to Carrito--><g class="link" data-entity-1="Usuario" data-entity-2="Carrito" data-source-line="112" data-uid="lnk14" id="link_Usuario_Carrito"><path codeLine="112" d="M539.66,252.45 C521.95,288.68 505.1449,323.0295 489.0049,356.0495" fill="none" id="Usuario-to-Carrito" style="stroke:#181818;stroke-width:1;"/><polygon fill="#181818" points="486.37,361.44,493.9159,355.1108,488.5657,356.9479,486.7286,351.5977,486.37,361.44" style="stroke:#181818;stroke-width:1;"/><text fill="#000000" font-family="sans-serif" font-size="13" lengthAdjust="spacing" textLength="8.271" x="527.951" y="272.1448">1</text><text fill="#000000" font-family="sans-serif" font-size="13" lengthAdjust="spacing" textLength="8.271" x="481.3727" y="350.811">1</text></g><!--link Usuario to ListaDeseos--><g class="link" data-entity-1="Usuario" data-entity-2="ListaDeseos" data-source-line="113" data-uid="lnk15" id="link_Usuario_ListaDeseos"><path codeLine="113" d="M676.07,252.45 C707.88,291.71 739.2732,330.4278 767.2132,364.9178" fill="none" id="Usuario-to-ListaDeseos" style="stroke:#181818;stroke-width:1;"/><polygon fill="#181818" points="770.99,369.58,768.4329,360.0689,767.8427,365.6949,762.2167,365.1046,770.99,369.58" style="stroke:#181818;stroke-width:1;"/><text fill="#000000" font-family="sans-serif" font-size="13" lengthAdjust="spacing" textLength="8.271" x="673.526" y="272.1448">1</text><text fill="#000000" font-family="sans-serif" font-size="13" lengthAdjust="spacing" textLength="23.0356" x="741.4427" y="359.1594">0..*</text></g><!--link Usuario to Pedido--><g class="link" data-entity-1="Usuario" data-entity-2="Pedido" data-source-line="114" data-uid="lnk16" id="link_Usuario_Pedido"><path codeLine="114" d="M495.29,184.06 C424.3,213.47 326.91,258.75 250,312.97 C236.42,322.54 227.4068,329.6229 214.6368,341.1329" fill="none" id="Usuario-to-Pedido" style="stroke:#181818;stroke-width:1;"/><polygon fill="#181818" points="210.18,345.15,219.5433,342.0956,213.894,341.8024,214.1872,336.1532,210.18,345.15" style="stroke:#181818;stroke-width:1;"/><text fill="#000000" font-family="sans-serif" font-size="13" lengthAdjust="spacing" textLength="8.271" x="479.3552" y="183.5288">1</text><text fill="#000000" font-family="sans-serif" font-size="13" lengthAdjust="spacing" textLength="23.0356" x="192.8933" y="334.4847">0..*</text></g><!--link Usuario to Rese?a--><g class="link" data-entity-1="Usuario" data-entity-2="Rese.a" data-source-line="115" data-uid="lnk17" id="link_Usuario_Rese.a"><path codeLine="115" d="M686.54,183.73 C748.82,206.17 832.3,234.03 908,251.97 C998.06,273.31 1258.07,244.19 1320,312.97 C1360.9,358.39 1356.8872,516.7467 1348.6272,627.2567" fill="none" id="Usuario-to-Rese&#241;a" style="stroke:#181818;stroke-width:1;"/><polygon fill="#181818" points="1348.18,633.24,1352.8397,624.5632,1348.5527,628.2539,1344.862,623.9669,1348.18,633.24" style="stroke:#181818;stroke-width:1;"/><text fill="#000000" font-family="sans-serif" font-size="13" lengthAdjust="spacing" textLength="8.271" x="694.4829" y="183.1725">1</text><text fill="#000000" font-family="sans-serif" font-size="13" lengthAdjust="spacing" textLength="23.0356" x="1325.0883" y="622.347">0..*</text></g><!--link Libro to Rese?a--><g class="link" data-entity-1="Libro" data-entity-2="Rese.a" data-source-line="116" data-uid="lnk18" id="link_Libro_Rese.a"><path codeLine="116" d="M1229.58,556.95 C1244.72,582.24 1257.4883,603.5519 1272.2383,628.1919" fill="none" id="Libro-to-Rese&#241;a" style="stroke:#181818;stroke-width:1;"/><polygon fill="#181818" points="1275.32,633.34,1274.1294,623.5634,1272.7519,629.0499,1267.2653,627.6724,1275.32,633.34" style="stroke:#181818;stroke-width:1;"/><text fill="#000000" font-family="sans-serif" font-size="13" lengthAdjust="spacing" textLength="8.271" x="1225.5524" y="576.5189">1</text><text fill="#000000" font-family="sans-serif" font-size="13" lengthAdjust="spacing" textLength="23.0356" x="1247.1053" y="622.454">0..*</text></g><!--link Libro to ItemCarrito--><g class="link" data-entity-1="Libro" data-entity-2="ItemCarrito" data-source-line="117" data-uid="lnk19" id="link_Libro_ItemCarrito"><path codeLine="117" d="M1011.35,546.96 C1005.57,550.32 999.78,553.52 994,556.53 C846.67,633.26 666.0976,685.6818 554.4376,713.8618" fill="none" id="Libro-to-ItemCarrito" style="stroke:#181818;stroke-width:1;"/><polygon fill="#181818" points="548.62,715.33,558.3252,717.0061,553.468,714.1065,556.3676,709.2493,548.62,715.33" style="stroke:#181818;stroke-width:1;"/><text fill="#000000" font-family="sans-serif" font-size="13" lengthAdjust="spacing" textLength="8.271" x="995.6405" y="549.4294">1</text><text fill="#000000" font-family="sans-serif" font-size="13" lengthAdjust="spacing" textLength="23.0356" x="556.2935" y="710.2091">0..*</text></g><!--link Libro to ItemListaDeseos--><g class="link" data-entity-1="Libro" data-entity-2="ItemListaDeseos" data-source-line="118" data-uid="lnk20" id="link_Libro_ItemListaDeseos"><path codeLine="118" d="M1089.24,556.95 C1061.04,607.37 1033.1883,657.1931 1013.0583,693.1931" fill="none" id="Libro-to-ItemListaDeseos" style="stroke:#181818;stroke-width:1;"/><polygon fill="#181818" points="1010.13,698.43,1018.0137,692.5269,1012.5702,694.0659,1011.0312,688.6225,1010.13,698.43" style="stroke:#181818;stroke-width:1;"/><text fill="#000000" font-family="sans-serif" font-size="13" lengthAdjust="spacing" textLength="8.271" x="1077.099" y="576.5189">1</text><text fill="#000000" font-family="sans-serif" font-size="13" lengthAdjust="spacing" textLength="23.0356" x="988.8935" y="687.5435">0..*</text></g><!--link Carrito to ItemCarrito--><g class="link" data-entity-1="Carrito" data-entity-2="ItemCarrito" data-source-line="119" data-uid="lnk21" id="link_Carrito_ItemCarrito"><path codeLine="119" d="M451,507.77 C451,558.32 451,619.32 451,668" fill="none" id="Carrito-to-ItemCarrito" style="stroke:#181818;stroke-width:1;"/><polygon fill="#181818" points="451,674,455,665,451,669,447,665,451,674" style="stroke:#181818;stroke-width:1;"/><text fill="#000000" font-family="sans-serif" font-size="13" lengthAdjust="spacing" textLength="8.271" x="442.6194" y="527.7696">1</text><text fill="#000000" font-family="sans-serif" font-size="13" lengthAdjust="spacing" textLength="23.0356" x="426.7437" y="663.1431">0..*</text></g><!--link ListaDeseos to ItemListaDeseos--><g class="link" data-entity-1="ListaDeseos" data-entity-2="ItemListaDeseos" data-source-line="120" data-uid="lnk22" id="link_ListaDeseos_ItemListaDeseos"><path codeLine="120" d="M857.99,499.85 C890.82,559.99 935.9961,642.7331 963.5461,693.2231" fill="none" id="ListaDeseos-to-ItemListaDeseos" style="stroke:#181818;stroke-width:1;"/><polygon fill="#181818" points="966.42,698.49,965.6204,688.6737,964.0251,694.1009,958.5978,692.5055,966.42,698.49" style="stroke:#181818;stroke-width:1;"/><text fill="#000000" font-family="sans-serif" font-size="13" lengthAdjust="spacing" textLength="8.271" x="853.2001" y="519.4104">1</text><text fill="#000000" font-family="sans-serif" font-size="13" lengthAdjust="spacing" textLength="23.0356" x="937.944" y="687.6134">0..*</text></g><!--link Pedido to ItemCarrito--><g class="link" data-entity-1="Pedido" data-entity-2="ItemCarrito" data-source-line="121" data-uid="lnk23" id="link_Pedido_ItemCarrito"><path codeLine="121" d="M216.26,524.26 C227.55,535.2 239,546.17 250,556.53 C292.1,596.18 335.675,635.6232 374.235,670.0632" fill="none" id="Pedido-to-ItemCarrito" style="stroke:#181818;stroke-width:1;"/><polygon fill="#181818" points="378.71,674.06,374.6621,665.0814,374.9809,670.7293,369.333,671.0481,378.71,674.06" style="stroke:#181818;stroke-width:1;"/><text fill="#000000" font-family="sans-serif" font-size="13" lengthAdjust="spacing" textLength="8.271" x="215.0649" y="544.0629">1</text><text fill="#000000" font-family="sans-serif" font-size="13" lengthAdjust="spacing" textLength="23.0356" x="346.547" y="663.2097">0..*</text></g><!--link Pedido to Pago--><g class="link" data-entity-1="Pedido" data-entity-2="Pago" data-source-line="122" data-uid="lnk24" id="link_Pedido_Pago"><path codeLine="122" d="M127,524.4 C127,566.55 127,610.58 127,651.62" fill="none" id="Pedido-to-Pago" style="stroke:#181818;stroke-width:1;"/><polygon fill="#181818" points="127,657.62,131,648.62,127,652.62,123,648.62,127,657.62" style="stroke:#181818;stroke-width:1;"/><text fill="#000000" font-family="sans-serif" font-size="13" lengthAdjust="spacing" textLength="8.271" x="118.704" y="543.9102">1</text><text fill="#000000" font-family="sans-serif" font-size="13" lengthAdjust="spacing" textLength="8.271" x="118.6677" y="647.0528">1</text></g><!--link Inventario to Libro--><g class="link" data-entity-1="Inventario" data-entity-2="Libro" data-source-line="123" data-uid="lnk25" id="link_Inventario_Libro"><path codeLine="123" d="M1157,211.37 C1157,241.2 1157,271.73 1157,306.49" fill="none" id="Inventario-to-Libro" style="stroke:#181818;stroke-width:1;"/><polygon fill="#181818" points="1157,312.49,1161,303.49,1157,307.49,1153,303.49,1157,312.49" style="stroke:#181818;stroke-width:1;"/><text fill="#000000" font-family="sans-serif" font-size="13" lengthAdjust="spacing" textLength="8.271" x="1148.577" y="231.3616">1</text><text fill="#000000" font-family="sans-serif" font-size="13" lengthAdjust="spacing" textLength="8.271" x="1148.7764" y="302.0589">1</text></g><!--link Moderador to Rese?a--><g class="link" data-entity-1="Moderador" data-entity-2="Rese.a" data-source-line="124" data-uid="lnk26" id="link_Moderador_Rese.a"><path codeLine="124" d="M1483.77,499.85 C1460.06,538.58 1432.4123,583.7625 1405.2423,628.1525" fill="none" id="Moderador-to-Rese&#241;a" style="stroke:#181818;stroke-width:1;"/><polygon fill="#181818" points="1402.11,633.27,1410.2201,627.682,1404.7202,629.0054,1403.3968,623.5056,1402.11,633.27" style="stroke:#181818;stroke-width:1;"/><text fill="#000000" font-family="sans-serif" font-size="13" lengthAdjust="spacing" textLength="50.1782" x="1431" y="599.5969">modera</text><text fill="#000000" font-family="sans-serif" font-size="13" lengthAdjust="spacing" textLength="8.271" x="1471.3261" y="519.4104">1</text><text fill="#000000" font-family="sans-serif" font-size="13" lengthAdjust="spacing" textLength="23.0356" x="1382.8102" y="622.3791">0..*</text></g><!--SRC=[bLRDRXen4BxdALPSIak9scjK8LMWIf6e51Nw0BFU2N7ZjT7OYw9KUQGU-WnviOwzNh2N1L8koFFd-RxvyMv1FC86Yz5IbeJq-WSArCNozOz661M_hwwAGYYmjlXf6o1fM5JmRoghABWfLewathHYRMeEayigIIY4D3eNOmrIvI9Xj2EmgA4N0PonQw1Vw7BDX70ZBVlG-FrDiJEoQiLIIo61LcZvMgygZL48kjM2S0qe-Goqy85pLu54gMVKl1oOy4mbF8HZdg-Jhb4z6JJEK0ykEDmOaZsqMr1G4imLx9Z99UFxqgfdKSzqUjw_AGCk4eHMaDmUaJmf6ok0xWojGqeUK0WOafxrRBxw5C-RpBkKpvlT9H06BKtfK2CjkA1AOIZ1Fks4wZkiP9LmtPvpkkvHF323N4gCZMKTz8sSuOjIoYQ2a5CDyNeD05gWIdLPyrIuCsg7fzG2b6ZOU-qlzDhkoWJL78YaIs15GPvoqyrN7BJOknjkUQ1RX_LOjPqNUFrOSDvELb3T5BUQYuIKeK8bQwa773Eh7VYnYUdajCIAUN-xBwa_HUjPZZ7H771wOGuopQGRYXwCLcoRSg26aUnLL9xWswSA2xHeR3gsjhTCXfPNntT8y3Hl7RiNp2A7GP6JcAGuGEGWW8ja9a5-iE_hNpWuUq5_onxNOh05fmwV-htAXP3tKa2xWBB23KrZVsGdswPKx4vjMddZEMeqgzR-rd4DJqlK6_UGTdbQhqXni9wRUgkmRUJ1xGARTBVmAK-pvkSetxCrH-k3UHj0CW8jBnM-v6Xdx9YzQaYNje7UeNRv2toGlNMe5j9kZPQbmhnAoPEuSaOyZiyl4rv_eTpKnPCUGFM6XJI8xRkfa9X3Ea3RYov_NXn_Hqo0wIxttKInr-CGP4Z85-hvicd8zXtBLUXnj7pileX6dqV5T3eB_t7b3Ma_NLz_6AMxwBHH-xQSriVqsA3z5la_TRAQpvdacNQx_4Aimvww636-xMS3zctutqy9Qv9vIBLTpnzQQfYRugQeWydLopy0]--></g></svg>